<svg xmlns="http://www.w3.org/2000/svg" version="1.1" xmlns:xlink="http://www.w3.org/1999/xlink" xmlns:svgjs="http://svgjs.dev/svgjs" width="1000" height="1000" viewBox="0 0 1000 1000"><rect width="1000" height="1000" fill="#f9f9f9"></rect><g transform="matrix(0.7,0,0,0.7,149.57575757575756,454.2816735670342)"><svg viewBox="0 0 396 52" data-background-color="#f9f9f9" preserveAspectRatio="xMidYMid meet" height="131" width="1000" xmlns="http://www.w3.org/2000/svg" xmlns:xlink="http://www.w3.org/1999/xlink"><g id="tight-bounds" transform="matrix(1,0,0,1,0.2400000000000091,-0.07466767160067889)"><svg viewBox="0 0 395.52 52.149335343201365" height="52.149335343201365" width="395.52"><g><svg viewBox="0 0 447.55110306479855 59.00963935311958" height="52.149335343201365" width="395.52"><g><svg viewBox="0 0 395.52 59.00963935311958" height="59.00963935311958" width="395.52"><g id="textblocktransform"><svg viewBox="0 0 395.52 59.00963935311958" height="59.00963935311958" width="395.52" id="textblock"><g><svg viewBox="0 0 395.52 59.00963935311958" height="59.00963935311958" width="395.52"><g transform="matrix(1,0,0,1,0,0)"><svg width="395.52" viewBox="-3.5 -33.45 245.30100000000002 37.45" height="59.00963935311958" data-palette-color="#3b82f6"><g transform="matrix(1,0,0,1,0,0)"><g><svg width="6.974000000000001" viewBox="-4 -4 8 8" height="6.974000000000001" data-palette-color="#3b82f6" id="scriptelement" x="230.827" y="-29.45"><path d="M0 0" opacity="1" transform="matrix(1,0,0,1,0,0)" fill="#3b82f6" class="undefined-123" id="av-123"></path></svg></g></g><path d="M22.45 0L14.45 0 0.5-29.35 7.5-29.35 16.9-9.1 18.25-5.5 18.7-5.5 20-9.1 29.5-29.35 36.3-29.35 35.5-26.35 22.45 0ZM63.05 0L48.45 0Q44.95 0 42.95-1 40.95-2 40.12-4 39.3-6 39.3-8.95L39.3-8.95 39.3-20.5Q39.3-23.4 40.1-25.38 40.9-27.35 42.9-28.38 44.9-29.4 48.45-29.4L48.45-29.4 63.05-29.4Q66.55-29.4 68.52-28.38 70.5-27.35 71.32-25.38 72.15-23.4 72.15-20.5L72.15-20.5 72.15-8.95Q72.15-4.55 70.2-2.27 68.25 0 63.05 0L63.05 0ZM49.9-4.8L49.9-4.8 61.65-4.8Q63.5-4.8 64.52-5.75 65.55-6.7 65.55-8.35L65.55-8.35 65.55-21.1Q65.55-22.55 64.5-23.58 63.45-24.6 61.65-24.6L61.65-24.6 49.9-24.6Q48.1-24.6 47-23.65 45.9-22.7 45.9-21.1L45.9-21.1 45.9-8.35Q45.9-6.65 46.97-5.73 48.05-4.8 49.9-4.8ZM103.45 0L79.65 0 80.15-4 80.15-29.4 86.75-29.4 86.75-4.8 107.45-4.8 109.45-0.55Q109.45-0.35 108.1-0.18 106.75 0 103.45 0L103.45 0ZM122.59 0L115.99 0 115.94-24.65 102.94-24.65 102.94-29.45 135.64-29.45 135.64-24.65 122.59-24.65 122.59 0ZM147.24 0L140.64 0 140.64-29.4 147.24-29.4 147.24 0ZM178.79 0L163.89 0Q160.34 0 158.34-1 156.34-2 155.54-4 154.74-6 154.74-8.95L154.74-8.95 154.74-20.1Q154.74-24.9 156.89-27.18 159.04-29.45 163.89-29.45L163.89-29.45 178.94-29.45Q182.39-29.45 184.21-29.08 186.04-28.7 186.04-28.3L186.04-28.3 185.04-24.15Q184.19-24.3 180.01-24.48 175.84-24.65 167.89-24.65L167.89-24.65 165.34-24.65Q161.34-24.65 161.34-21.1L161.34-21.1 161.34-8.35Q161.34-6.65 162.21-5.73 163.09-4.8 165.34-4.8L165.34-4.8 167.39-4.8Q172.19-4.8 175.49-4.88 178.79-4.95 180.94-5L180.94-5 180.94-11.8 177.94-11.75 171.39-11.25 171.39-16.15 187.49-16.15 187.49-2.1 187.99-1.05Q187.99-0.65 185.89-0.33 183.79 0 178.79 0L178.79 0ZM218.24 0L203.64 0Q200.14 0 198.14-1 196.14-2 195.31-4 194.49-6 194.49-8.95L194.49-8.95 194.49-20.5Q194.49-23.4 195.29-25.38 196.09-27.35 198.09-28.38 200.09-29.4 203.64-29.4L203.64-29.4 218.24-29.4Q221.74-29.4 223.71-28.38 225.69-27.35 226.51-25.38 227.34-23.4 227.34-20.5L227.34-20.5 227.34-8.95Q227.34-4.55 225.39-2.27 223.44 0 218.24 0L218.24 0ZM205.09-4.8L205.09-4.8 216.84-4.8Q218.69-4.8 219.71-5.75 220.74-6.7 220.74-8.35L220.74-8.35 220.74-21.1Q220.74-22.55 219.69-23.58 218.64-24.6 216.84-24.6L216.84-24.6 205.09-24.6Q203.29-24.6 202.19-23.65 201.09-22.7 201.09-21.1L201.09-21.1 201.09-8.35Q201.09-6.65 202.16-5.73 203.24-4.8 205.09-4.8Z" opacity="1" transform="matrix(1,0,0,1,0,0)" fill="#3b82f6" class="undefined-text-0" data-fill-palette-color="primary" id="text-0"></path></svg></g></svg></g></svg></g></svg></g><g transform="matrix(1,0,0,1,406.7754422717929,9.116989280056973)"><svg viewBox="0 0 40.775660793005635 40.775660793005635" height="40.775660793005635" width="40.775660793005635"><g data-palette-color="#3b82f6"><rect width="11.145347283421541" height="40.775660793005635" fill="#3b82f6" stroke="transparent" data-fill-palette-color="accent" x="0" fill-opacity="1"></rect><rect width="11.145347283421541" height="40.775660793005635" fill="#3b82f6" stroke="transparent" data-fill-palette-color="accent" x="13.591886931001879" fill-opacity="0.75"></rect><rect width="11.145347283421541" height="40.775660793005635" fill="#3b82f6" stroke="transparent" data-fill-palette-color="accent" x="27.183773862003758" fill-opacity="0.5"></rect></g></svg></g></svg></g><defs></defs></svg><rect width="395.52" height="52.149335343201365" fill="none" stroke="none" visibility="hidden"></rect></g></svg></g></svg>